<svg xmlns="http://www.w3.org/2000/svg" version="1.0" preserveAspectRatio="xMidYMid meet" viewBox="29.46 16.02 264.38 109.81">
<metadata>
Created by potrace 1.10, written by Peter Selinger 2001-2011
</metadata>
<g transform="translate(0.000000,129.000000) scale(0.100000,-0.100000)" fill="#944BBB" stroke="none">
<path d="M1187 1123 c-11 -11 -8 -62 5 -83 18 -29 -1 -42 -70 -51 -95 -11 -255 -65 -304 -102 -38 -29 -43 -38 -42 -71 1 -30 -2 -36 -16 -31 -11 4 -20 -1 -24 -11 -5 -12 6 -30 33 -58 64 -66 63 -84 -5 -163 -32 -38 -60 -70 -61 -72 -2 -3 -22 6 -46 20 -55 31 -162 34 -220 5 -130 -64 -180 -220 -112 -344 49 -89 142 -139 242 -129 67 7 135 45 171 97 25 34 31 37 73 37 39 -1 45 -4 42 -18 -4 -13 5 -22 32 -33 47 -20 55 -20 55 -1 0 9 11 20 24 25 14 5 33 21 42 35 15 23 16 32 5 61 l-12 33 114 129 c63 71 125 143 138 161 28 38 34 39 47 4 5 -16 13 -35 16 -44 5 -11 -4 -23 -31 -41 -117 -77 -130 -270 -25 -374 49 -50 98 -69 177 -69 59 0 78 4 117 28 169 99 169 335 0 434 -41 25 -57 28 -129 28 -76 0 -83 1 -92 23 -6 13 -11 25 -11 28 0 2 57 4 128 4 116 -1 150 -6 397 -60 310 -68 523 -108 613 -117 34 -3 62 -9 62 -13 0 -17 -64 -33 -165 -41 -132 -9 -203 -22 -244 -43 -36 -19 -90 -23 -143 -12 -49 11 -48 -2 3 -38 37 -26 46 -28 97 -22 31 4 67 14 80 22 13 9 27 13 30 9 13 -12 -16 -40 -54 -53 -21 -7 -49 -24 -60 -39 -13 -15 -27 -23 -34 -18 -13 8 -30 -11 -30 -32 0 -24 32 -13 71 22 22 19 46 35 54 35 25 0 17 -17 -14 -28 -16 -6 -34 -20 -40 -31 -6 -11 -23 -26 -38 -33 -36 -17 -43 -48 -12 -48 15 0 39 17 65 45 36 40 46 45 83 45 48 0 105 26 140 64 31 33 48 33 122 -5 52 -26 70 -30 113 -26 28 3 61 8 74 12 19 6 22 4 22 -18 0 -33 8 -37 78 -44 42 -4 69 -14 100 -37 41 -28 45 -29 69 -16 37 22 34 34 -12 40 -22 3 -51 13 -65 22 -14 8 -37 18 -52 22 -16 4 -28 11 -28 17 0 16 70 4 108 -18 28 -16 31 -16 56 0 38 25 32 35 -26 40 -50 5 -92 12 -145 23 -32 6 -28 25 10 50 56 37 78 38 151 8 17 -6 18 -4 12 19 -5 23 -4 27 16 24 33 -3 36 30 4 43 -14 5 -39 24 -55 42 -23 25 -28 39 -24 61 5 22 3 26 -11 21 -9 -3 -16 -1 -16 5 0 23 -18 10 -23 -18 -4 -17 -14 -32 -26 -36 -17 -5 -159 -17 -206 -17 -58 0 -523 92 -825 162 -160 37 -186 41 -301 40 l-127 -1 -11 32 c-14 40 -14 39 4 39 8 0 15 -7 15 -15 0 -18 9 -19 45 -5 23 9 26 15 23 47 l-3 38 -55 1 c-30 1 -73 8 -95 16 -37 14 -40 18 -41 54 0 21 7 54 15 71 17 34 41 44 41 18 0 -8 5 -15 10 -15 14 0 13 13 -2 28 -18 18 0 28 24 13 20 -12 24 -11 44 14 12 16 20 34 17 42 -4 9 3 16 16 20 46 12 18 79 -46 112 -24 12 -105 15 -116 4z m97 -44 c34 -16 38 -33 18 -69 -11 -20 -29 -34 -54 -40 -44 -12 -83 -56 -99 -110 -13 -43 -20 -48 -38 -26 -12 14 -84 36 -121 36 -11 0 -32 -11 -46 -25 -33 -33 -23 -49 60 -109 36 -26 68 -51 72 -58 4 -6 -7 0 -24 12 -39 29 -87 30 -107 4 -21 -28 -18 -47 10 -74 14 -13 25 -20 25 -16 0 5 7 3 15 -4 14 -12 13 -16 -6 -37 -29 -30 -34 -29 -49 6 -6 16 -20 37 -31 47 -10 9 -19 25 -19 35 0 9 -21 34 -46 55 -44 38 -45 40 -38 82 5 32 15 49 38 66 36 27 198 82 271 92 85 11 114 35 115 95 0 51 10 58 54 38z m-230 -260 c40 -10 44 -14 57 -57 14 -47 15 -47 76 -62 46 -11 65 -20 72 -37 10 -23 10 -23 -65 -23 -70 0 -75 1 -63 16 12 15 7 23 -38 64 -29 26 -72 58 -97 70 -25 12 -48 26 -52 31 -7 12 58 11 110 -2z m-198 -154 c6 -24 0 -44 -10 -34 -11 11 -17 59 -7 59 6 0 13 -11 17 -25z m167 7 c32 -5 35 -17 8 -32 -42 -22 -71 -7 -71 37 0 11 5 13 18 8 9 -4 29 -10 45 -13z m-126 -98 c19 -29 21 -38 10 -54 -18 -29 -34 -24 -40 13 -3 17 -8 42 -12 55 -12 35 17 26 42 -14z m353 30 c0 -4 -6 -12 -14 -18 -18 -14 -164 -182 -201 -230 -30 -40 -46 -47 -38 -16 3 11 1 20 -5 20 -6 0 -20 13 -32 30 -29 41 -21 61 63 148 l70 72 79 0 c43 0 78 -3 78 -6z m-410 -45 c0 -12 5 -39 11 -60 7 -20 8 -46 4 -56 -4 -10 -8 -40 -10 -68 -2 -56 -22 -135 -33 -135 -21 1 -34 19 -25 35 12 21 -19 120 -47 150 -11 12 -20 25 -20 29 0 10 103 126 112 126 5 0 8 -10 8 -21z m-225 -95 c46 -17 46 -24 -1 -80 -33 -38 -54 -54 -71 -54 -46 0 -71 -54 -39 -86 18 -17 61 -18 77 -1 9 9 27 10 73 4 86 -13 92 -15 78 -29 -11 -11 -74 -1 -129 19 -18 7 -5 -29 23 -63 16 -19 22 -22 17 -10 -5 15 -3 18 10 13 28 -11 19 1 -14 18 -17 9 -29 19 -26 21 6 6 88 -16 100 -26 4 -4 -11 -25 -33 -48 -76 -76 -195 -76 -275 0 -20 19 -37 40 -39 48 -2 8 -6 22 -9 30 -37 98 22 213 127 246 41 13 94 12 131 -2z m860 5 c4 -5 10 -7 15 -4 10 6 54 -19 82 -47 24 -24 50 -77 43 -88 -3 -6 -2 -10 3 -10 13 0 14 -78 1 -85 -5 -4 -7 -10 -4 -14 8 -14 -38 -74 -81 -104 -124 -87 -296 7 -296 163 0 61 16 100 61 148 31 31 45 28 61 -15 8 -21 17 -42 19 -48 2 -5 -4 -4 -15 4 -10 8 -7 2 9 -13 31 -31 33 -39 13 -56 -17 -14 -10 -38 18 -61 23 -19 51 -14 70 13 19 27 8 58 -26 73 -23 9 -36 27 -58 78 -24 58 -26 66 -11 70 33 8 91 5 96 -4z m-766 -92 c28 -58 27 -67 -11 -67 -31 1 -32 1 -14 15 11 8 16 15 10 15 -5 0 -18 -7 -28 -15 -11 -8 -29 -15 -40 -16 -12 -1 -1 -5 24 -10 25 -5 53 -7 63 -5 17 4 36 -19 25 -30 -3 -2 -37 1 -77 7 -84 14 -87 22 -31 86 22 25 40 50 40 54 0 23 20 5 39 -34z m2124 -12 l28 -35 -36 0 c-88 0 -187 -94 -143 -138 22 -22 -2 -26 -25 -4 -20 19 -34 22 -98 20 -60 -1 -82 3 -115 21 -73 39 -103 38 -158 -4 -79 -60 -135 -71 -101 -18 11 16 15 36 12 53 -6 25 -3 28 31 35 20 4 82 10 137 14 76 5 111 12 145 30 32 16 77 27 157 35 62 7 116 15 120 19 11 12 17 8 46 -28z m-1854 -55 c6 0 11 -5 11 -11 0 -9 -56 -7 -66 4 -2 2 -7 19 -10 38 l-6 34 30 -32 c17 -18 36 -33 41 -33z m-59 -55 c0 -16 -27 -32 -37 -21 -7 7 16 36 28 36 5 0 9 -7 9 -15z m68 -41 c0 -20 -4 -25 -20 -21 -15 4 -17 2 -9 -7 25 -30 -23 -35 -56 -7 -27 22 -29 31 -8 31 8 0 15 -7 15 -15 0 -31 39 -3 53 38 9 25 25 13 25 -19z m-188 -2 c0 -10 6 -24 13 -31 10 -11 7 -12 -13 -6 -33 10 -33 10 -25 34 8 26 25 28 25 3z"/>
<path d="M511 431 c-1 -24 -1 -24 -16 -5 -19 26 -19 13 2 -31 22 -45 30 -44 25 3 -4 48 -10 64 -11 33z"/>
<path d="M561 405 l0 -50 19 35 c20 37 27 69 8 35 -12 -19 -12 -19 -19 5 -5 18 -7 12 -8 -25z"/>
<path d="M437 396 c5 -16 3 -18 -13 -13 -11 4 -4 -6 16 -23 57 -48 68 -37 20 20 -17 20 -27 27 -23 16z"/>
<path d="M395 329 c19 -13 19 -13 -5 -20 -22 -6 -20 -7 12 -8 20 -1 43 -4 52 -7 9 -3 16 -2 16 3 0 5 -17 15 -37 23 -55 21 -60 23 -38 9z"/>
<path d="M420 260 c-25 -4 -39 -8 -31 -8 8 -1 11 -8 7 -18 -3 -9 -3 -14 1 -12 5 3 23 10 41 17 17 7 32 17 32 22 0 5 -1 8 -2 7 -2 0 -23 -4 -48 -8z"/>
<path d="M459 211 c-9 -9 -24 -22 -35 -29 -17 -12 -17 -12 -1 -8 15 5 17 2 11 -17 -8 -27 -2 -22 30 25 26 39 23 57 -5 29z"/>
<path d="M496 164 c-9 -20 -15 -39 -12 -42 3 -3 9 4 13 14 6 17 8 16 13 -6 5 -20 8 -15 11 23 2 26 2 47 -2 47 -3 0 -13 -16 -23 -36z"/>
<path d="M559 153 c3 -27 6 -40 9 -30 4 19 22 24 22 5 0 -6 2 -9 5 -6 7 6 -26 78 -34 78 -4 0 -4 -21 -2 -47z"/>
<path d="M1464 394 l-11 -48 24 30 c13 16 29 38 35 49 11 20 10 20 -10 2 -19 -17 -20 -17 -24 -1 -1 9 -8 -5 -14 -32z"/>
<path d="M1518 365 c-37 -44 -35 -48 12 -24 39 20 55 37 25 25 -18 -7 -20 5 -3 22 7 7 8 12 3 11 -6 0 -22 -15 -37 -34z"/>
<path d="M1288 347 c11 -13 10 -16 -4 -19 -9 -1 4 -8 30 -14 54 -12 58 -6 13 21 -46 28 -54 30 -39 12z"/>
<path d="M1543 308 c-46 -15 -41 -23 15 -24 26 -1 39 1 29 3 -14 4 -16 8 -6 19 13 16 7 16 -38 2z"/>
<path d="M1282 263 c8 -10 7 -13 -2 -13 -8 0 -11 -3 -7 -6 6 -6 77 17 77 26 0 3 -18 5 -40 5 -31 1 -37 -2 -28 -12z"/>
<path d="M1500 253 c0 -4 15 -17 33 -28 46 -28 54 -30 39 -12 -11 13 -10 16 5 20 11 3 8 5 -10 6 -16 0 -37 6 -48 11 -10 6 -19 7 -19 3z"/>
<path d="M1325 214 c-23 -14 -33 -24 -23 -24 12 0 16 -5 11 -17 -3 -10 8 -2 25 17 17 19 31 38 32 43 0 9 3 10 -45 -19z"/>
<path d="M1493 180 c14 -25 23 -34 25 -24 3 12 7 13 18 3 28 -23 13 2 -18 31 -44 40 -50 37 -25 -10z"/>
<path d="M1371 167 c-17 -29 -19 -38 -8 -28 15 12 17 11 18 -5 0 -18 1 -18 8 1 15 37 21 75 14 75 -5 0 -19 -19 -32 -43z"/>
<path d="M1435 161 c0 -30 3 -37 13 -29 8 7 12 7 12 -2 0 -8 3 -11 6 -7 6 6 -17 77 -26 77 -3 0 -5 -18 -5 -39z"/>
</g>
</svg>