<svg width="20" height="20" viewBox="0 0 20 20" fill="none" xmlns="http://www.w3.org/2000/svg">
<path d="M9.99981 15C11.0607 15 12.0781 14.5786 12.8282 13.8284C13.5784 13.0783 13.9998 12.0609 13.9998 11H11.9998C11.9998 11.5304 11.7891 12.0391 11.414 12.4142C11.039 12.7893 10.5302 13 9.99981 13C9.46938 13 8.96067 12.7893 8.5856 12.4142C8.21053 12.0391 7.99981 11.5304 7.99981 11H5.99981C5.99981 12.0609 6.42124 13.0783 7.17139 13.8284C7.92153 14.5786 8.93895 15 9.99981 15ZM4.49981 8.50566e-07C3.58281 3.87031e-05 2.6877 0.280231 1.93433 0.803062C1.18097 1.32589 0.605324 2.0664 0.284461 2.92545C-0.0364012 3.78449 -0.0871597 4.72105 0.138982 5.60974C0.365124 6.49843 0.857372 7.29681 1.54981 7.898C1.05143 9.25807 0.888683 10.7183 1.0754 12.1548C1.26212 13.5912 1.79279 14.9613 2.62232 16.1488C3.45186 17.3362 4.55575 18.3059 5.84023 18.9754C7.1247 19.645 8.55181 19.9946 10.0003 19.9946C11.4488 19.9946 12.8759 19.645 14.1604 18.9754C15.4449 18.3059 16.5488 17.3362 17.3783 16.1488C18.2078 14.9613 18.7385 13.5912 18.9252 12.1548C19.1119 10.7183 18.9492 9.25807 18.4508 7.898C18.9409 7.47236 19.333 6.94575 19.6004 6.35429C19.8678 5.76283 20.004 5.12053 19.9998 4.47146C19.9956 3.82239 19.851 3.18192 19.576 2.59397C19.301 2.00603 18.9021 1.48454 18.4065 1.06529C17.911 0.646035 17.3307 0.338939 16.7053 0.165071C16.0799 -0.00879675 15.4244 -0.0453202 14.7836 0.0580064C14.1428 0.161333 13.5319 0.402064 12.9929 0.763682C12.4538 1.1253 11.9994 1.59925 11.6608 2.153C10.5633 1.94801 9.43733 1.94801 8.33982 2.153C7.93805 1.49501 7.37383 0.951383 6.70136 0.574345C6.02889 0.197308 5.27077 -0.000473312 4.49981 8.50566e-07ZM1.99981 4.5C1.99897 3.91124 2.20594 3.34106 2.58427 2.88994C2.9626 2.43882 3.48801 2.1357 4.06793 2.03399C4.64784 1.93228 5.24504 2.0385 5.75432 2.33394C6.26359 2.62939 6.65225 3.09509 6.85182 3.649L7.16982 4.527L8.06781 4.27C8.69607 4.09032 9.34637 3.99944 9.99981 4C10.6718 4 11.3198 4.094 11.9318 4.27L12.8298 4.527L13.1478 3.649C13.2851 3.26978 13.5121 2.92939 13.8094 2.65686C14.1067 2.38432 14.4655 2.18773 14.8552 2.08385C15.2449 1.97997 15.654 1.97187 16.0475 2.06025C16.441 2.14864 16.8073 2.33088 17.1152 2.59144C17.423 2.85199 17.6633 3.18314 17.8155 3.55663C17.9677 3.93012 18.0273 4.33488 17.9893 4.7364C17.9512 5.13792 17.8166 5.52428 17.597 5.86253C17.3773 6.20079 17.0791 6.48091 16.7278 6.679L15.9138 7.139L16.3178 7.981C16.827 9.04802 17.0577 10.2266 16.9882 11.4069C16.9188 12.5871 16.5516 13.7306 15.9208 14.7305C15.29 15.7305 14.4162 16.5544 13.3809 17.1254C12.3456 17.6964 11.1826 17.9958 10.0003 17.9958C8.81802 17.9958 7.65499 17.6964 6.61971 17.1254C5.58443 16.5544 4.71064 15.7305 4.07985 14.7305C3.44906 13.7306 3.08182 12.5871 3.01239 11.4069C2.94297 10.2266 3.17361 9.04802 3.68282 7.981L4.08581 7.138L3.27181 6.678C2.8857 6.46038 2.5644 6.14398 2.34088 5.76125C2.11735 5.37852 1.99964 4.94322 1.99981 4.5Z" fill="#E9DCD8"/>
</svg>
