<svg width="25" height="25" viewBox="0 0 25 25" fill="none" xmlns="http://www.w3.org/2000/svg">
<path d="M2.67857 0C1.19978 0 0 1.19978 0 2.67857V22.3214C0 23.8002 1.19978 25 2.67857 25H22.3214C23.8002 25 25 23.8002 25 22.3214V2.67857C25 1.19978 23.8002 0 22.3214 0H2.67857ZM8.19643 7.43493C9.29219 7.43493 10.2657 7.81378 10.9826 8.38198C11.6456 8.90943 11.9561 9.43705 12.227 9.9106L10.3339 10.8564C10.1985 10.5459 10.0355 10.221 9.61708 9.8697C9.15681 9.50407 8.69754 9.39626 8.30435 9.39626C6.76272 9.39626 5.95112 10.83 5.95112 12.4257C5.95112 14.5224 7.02037 15.5629 8.30435 15.5629C9.54877 15.5629 10.0498 14.6974 10.3735 14.1436L12.2545 15.1038C11.9021 15.6577 11.564 16.1995 10.8064 16.7259C10.4011 17.01 9.46836 17.5651 8.14252 17.5651C5.61306 17.5651 3.57143 15.726 3.57143 12.4927C3.57143 9.66708 5.49191 7.43493 8.19643 7.43493ZM12.4086 7.7322H14.9513L16.9258 14.5223L18.8859 7.73225H21.4286L18.115 17.2809H15.6814L12.4086 7.73231" fill="#E9DCD8"/>
</svg>
