<svg width="962" height="92" viewBox="0 0 962 92" fill="none" xmlns="http://www.w3.org/2000/svg">
<path d="M41.44 67.22C41.44 67.5467 41.3233 67.8967 41.09 68.27C40.8567 68.6433 40.53 68.83 40.11 68.83C39.8767 68.83 39.62 68.76 39.34 68.62C37.66 67.8267 35.7 67.1733 33.46 66.66C31.22 66.1933 28.91 65.7733 26.53 65.4C24.1967 65.0267 21.91 64.6067 19.67 64.14C17.43 63.72 15.47 63.16 13.79 62.46C14.07 63.0667 14.35 63.5567 14.63 63.93C14.91 64.3033 15.1433 64.63 15.33 64.91C15.5633 65.19 15.75 65.4467 15.89 65.68C16.03 65.96 16.1 66.31 16.1 66.73C16.1 67.1033 15.96 67.3833 15.68 67.57C15.4 67.7567 15.12 67.85 14.84 67.85C14.28 67.85 13.6733 67.5 13.02 66.8C12.4133 66.1 11.7833 65.2133 11.13 64.14C10.4767 63.0667 9.82333 61.8767 9.17 60.57C8.56333 59.2167 8.00333 57.91 7.49 56.65C6.97667 55.39 6.53333 54.2467 6.16 53.22C5.78667 52.1467 5.53 51.33 5.39 50.77L2.31 38.45C2.31 38.31 2.33333 38.1233 2.38 37.89C2.47333 37.6567 2.66 37.4233 2.94 37.19C2.75333 36.8167 2.66 36.42 2.66 36C2.66 34.6933 3.40667 33.5033 4.9 32.43C6.39333 31.31 8.19 30.3767 10.29 29.63C12.4367 28.8367 14.6767 28.23 17.01 27.81C19.3433 27.39 21.3267 27.18 22.96 27.18C23.4267 27.18 24.1267 27.2267 25.06 27.32C25.9933 27.3667 26.9033 27.53 27.79 27.81C28.7233 28.09 29.5167 28.5333 30.17 29.14C30.87 29.7 31.22 30.4933 31.22 31.52C31.22 32.5 30.7067 33.62 29.68 34.88C28.7 36.14 27.4633 37.47 25.97 38.87C24.4767 40.27 22.8667 41.7167 21.14 43.21C19.4133 44.6567 17.8033 46.1267 16.31 47.62C14.8167 49.0667 13.5567 50.49 12.53 51.89C11.55 53.2433 11.06 54.5033 11.06 55.67C11.06 56.5567 11.4333 57.35 12.18 58.05C12.9733 58.7033 13.9533 59.2867 15.12 59.8C16.2867 60.3133 17.5467 60.7567 18.9 61.13C20.3 61.5033 21.6067 61.8067 22.82 62.04C24.08 62.2733 25.1533 62.46 26.04 62.6C26.9733 62.6933 27.5333 62.74 27.72 62.74C28.3267 62.74 29.3767 62.81 30.87 62.95C32.3633 63.09 33.88 63.3467 35.42 63.72C37.0067 64.0467 38.4067 64.49 39.62 65.05C40.8333 65.61 41.44 66.3333 41.44 67.22ZM27.93 31.59C27.93 31.2633 27.7667 30.9833 27.44 30.75C27.1133 30.47 26.67 30.26 26.11 30.12C25.5967 29.9333 25.0133 29.8167 24.36 29.77C23.7533 29.6767 23.1467 29.63 22.54 29.63C21.6067 29.63 20.4867 29.77 19.18 30.05C17.8733 30.33 16.5433 30.68 15.19 31.1C13.8833 31.52 12.67 31.94 11.55 32.36C10.43 32.78 9.61333 33.13 9.1 33.41C8.12 33.97 7.16333 34.6 6.23 35.3C5.29667 35.9533 4.83 36.6067 4.83 37.26C4.83 37.3533 4.9 37.4467 5.04 37.54C5.18 37.6333 5.25 37.7967 5.25 38.03C5.25 38.31 5.39 39.0333 5.67 40.2C5.95 41.32 6.27667 42.6033 6.65 44.05C7.02333 45.45 7.42 46.85 7.84 48.25C8.30667 49.65 8.72667 50.77 9.1 51.61C11.0133 48.9033 13.0667 46.5467 15.26 44.54C17.5 42.4867 19.5533 40.69 21.42 39.15C23.2867 37.5633 24.8267 36.1867 26.04 35.02C27.3 33.8067 27.93 32.6633 27.93 31.59ZM58.0803 56.65C58.127 56.7433 58.1503 56.8833 58.1503 57.07C58.1503 57.35 57.9403 57.77 57.5203 58.33C57.3803 58.5167 57.077 58.82 56.6103 59.24C56.1436 59.66 55.5136 60.08 54.7203 60.5C53.927 60.92 52.947 61.2933 51.7803 61.62C50.6603 61.9467 49.3303 62.11 47.7903 62.11C46.717 62.11 45.667 61.8767 44.6403 61.41C43.6136 60.8967 42.7036 60.1733 41.9103 59.24C41.117 58.26 40.4636 57.07 39.9503 55.67C39.437 54.2233 39.1803 52.5433 39.1803 50.63C39.1803 48.81 39.4136 47.1067 39.8803 45.52C40.347 43.9333 40.9303 42.5333 41.6303 41.32C42.377 40.1067 43.1936 39.15 44.0803 38.45C44.967 37.75 45.8303 37.4 46.6703 37.4C47.417 37.4 48.1636 37.5633 48.9103 37.89C49.7036 38.17 50.4036 38.5433 51.0103 39.01C51.6636 39.4767 52.177 40.0133 52.5503 40.62C52.9236 41.18 53.1103 41.7633 53.1103 42.37C53.1103 43.07 52.7836 43.7933 52.1303 44.54C51.5236 45.2867 50.777 45.9867 49.8903 46.64C49.0036 47.2467 48.117 47.76 47.2303 48.18C46.3436 48.5533 45.6436 48.74 45.1303 48.74C44.8503 48.74 44.5936 48.6233 44.3603 48.39C44.1736 48.11 44.0803 47.7833 44.0803 47.41C44.0803 46.7567 44.3603 46.2433 44.9203 45.87C45.527 45.4967 46.1803 45.17 46.8803 44.89C47.5803 44.5633 48.2103 44.19 48.7703 43.77C49.377 43.35 49.6803 42.7667 49.6803 42.02C49.6803 41.9267 49.5636 41.6933 49.3303 41.32C49.097 40.9467 48.467 40.76 47.4403 40.76C46.9736 40.76 46.437 41.04 45.8303 41.6C45.2236 42.1133 44.6403 42.8367 44.0803 43.77C43.5203 44.6567 43.0536 45.73 42.6803 46.99C42.307 48.2033 42.1203 49.5333 42.1203 50.98C42.1203 52.1933 42.3303 53.29 42.7503 54.27C43.217 55.25 43.8003 56.09 44.5003 56.79C45.2003 57.4433 46.017 57.9567 46.9503 58.33C47.8836 58.7033 48.8403 58.89 49.8203 58.89C50.5203 58.89 51.267 58.75 52.0603 58.47C52.9003 58.1433 53.6703 57.8167 54.3703 57.49C55.117 57.1167 55.747 56.79 56.2603 56.51C56.8203 56.1833 57.1703 56.02 57.3103 56.02C57.4503 56.02 57.5903 56.09 57.7303 56.23C57.917 56.37 58.0336 56.51 58.0803 56.65ZM82.4846 56.65C82.5313 56.7433 82.5546 56.8833 82.5546 57.07C82.5546 57.35 82.3446 57.77 81.9246 58.33C81.7846 58.5167 81.4813 58.82 81.0146 59.24C80.5479 59.66 79.9179 60.08 79.1246 60.5C78.3313 60.92 77.3513 61.2933 76.1846 61.62C75.0646 61.9467 73.7346 62.11 72.1946 62.11C71.1213 62.11 70.0713 61.8767 69.0446 61.41C68.0179 60.8967 67.1079 60.1733 66.3146 59.24C65.5213 58.26 64.8679 57.07 64.3546 55.67C63.8413 54.2233 63.5846 52.5433 63.5846 50.63C63.5846 48.81 63.8179 47.1067 64.2846 45.52C64.7513 43.9333 65.3346 42.5333 66.0346 41.32C66.7813 40.1067 67.5979 39.15 68.4846 38.45C69.3713 37.75 70.2346 37.4 71.0746 37.4C71.8213 37.4 72.5679 37.5633 73.3146 37.89C74.1079 38.17 74.8079 38.5433 75.4146 39.01C76.0679 39.4767 76.5813 40.0133 76.9546 40.62C77.3279 41.18 77.5146 41.7633 77.5146 42.37C77.5146 43.07 77.1879 43.7933 76.5346 44.54C75.9279 45.2867 75.1813 45.9867 74.2946 46.64C73.4079 47.2467 72.5213 47.76 71.6346 48.18C70.7479 48.5533 70.0479 48.74 69.5346 48.74C69.2546 48.74 68.9979 48.6233 68.7646 48.39C68.5779 48.11 68.4846 47.7833 68.4846 47.41C68.4846 46.7567 68.7646 46.2433 69.3246 45.87C69.9313 45.4967 70.5846 45.17 71.2846 44.89C71.9846 44.5633 72.6146 44.19 73.1746 43.77C73.7813 43.35 74.0846 42.7667 74.0846 42.02C74.0846 41.9267 73.9679 41.6933 73.7346 41.32C73.5013 40.9467 72.8713 40.76 71.8446 40.76C71.3779 40.76 70.8413 41.04 70.2346 41.6C69.6279 42.1133 69.0446 42.8367 68.4846 43.77C67.9246 44.6567 67.4579 45.73 67.0846 46.99C66.7113 48.2033 66.5246 49.5333 66.5246 50.98C66.5246 52.1933 66.7346 53.29 67.1546 54.27C67.6213 55.25 68.2046 56.09 68.9046 56.79C69.6046 57.4433 70.4213 57.9567 71.3546 58.33C72.2879 58.7033 73.2446 58.89 74.2246 58.89C74.9246 58.89 75.6713 58.75 76.4646 58.47C77.3046 58.1433 78.0746 57.8167 78.7746 57.49C79.5213 57.1167 80.1513 56.79 80.6646 56.51C81.2246 56.1833 81.5746 56.02 81.7146 56.02C81.8546 56.02 81.9946 56.09 82.1346 56.23C82.3213 56.37 82.4379 56.51 82.4846 56.65ZM108.429 55.39C108.429 55.67 108.336 55.95 108.149 56.23C107.962 56.51 107.729 56.7667 107.449 57C107.216 57.2333 106.936 57.4433 106.609 57.63C106.329 57.77 106.072 57.84 105.839 57.84C105.046 57.84 104.019 57.6767 102.759 57.35C101.546 56.9767 100.566 56.4167 99.8189 55.67C99.0256 54.8767 98.3256 53.9433 97.7189 52.87C97.1122 51.75 96.4356 50.1167 95.6889 47.97C95.1756 50.0233 94.5689 52.0533 93.8689 54.06C93.2156 56.0667 92.1422 57.91 90.6489 59.59C90.5556 59.6833 90.4156 59.73 90.2289 59.73C89.9022 59.73 89.5522 59.5667 89.1789 59.24C88.8056 58.9133 88.6189 58.5867 88.6189 58.26C88.6189 57.9333 88.5722 57.1867 88.4789 56.02C88.4322 54.8067 88.3622 53.4767 88.2689 52.03C88.1756 50.5367 88.0822 49.0433 87.9889 47.55C87.9422 46.01 87.9189 44.75 87.9189 43.77C87.9189 43.3033 87.9422 42.6967 87.9889 41.95C88.0356 41.1567 88.1756 40.48 88.4089 39.92C88.4556 39.8267 88.6189 39.64 88.8989 39.36C89.2256 39.08 89.5756 38.94 89.9489 38.94C90.2756 38.94 90.4622 39.15 90.5089 39.57C90.5556 39.99 90.5789 40.4567 90.5789 40.97V52.03C90.5789 52.2633 90.6022 52.59 90.6489 53.01C90.7422 53.43 90.8589 53.7333 90.9989 53.92C91.5122 52.8 91.9789 51.4933 92.3989 50C92.8656 48.46 93.3089 47.0133 93.7289 45.66C94.1489 44.26 94.5689 43.0933 94.9889 42.16C95.4089 41.18 95.8289 40.69 96.2489 40.69C96.7156 40.69 97.0889 40.7833 97.3689 40.97C97.6489 41.1567 97.8822 41.53 98.0689 42.09C98.3022 43.4433 98.4889 44.6567 98.6289 45.73C98.7689 46.7567 98.9322 47.69 99.1189 48.53C99.3522 49.37 99.6556 50.1633 100.029 50.91C100.449 51.61 101.009 52.2633 101.709 52.87C102.362 53.4767 103.086 53.92 103.879 54.2C104.719 54.48 105.442 54.62 106.049 54.62C106.329 54.62 106.632 54.5733 106.959 54.48C107.286 54.34 107.519 54.27 107.659 54.27C107.846 54.27 108.009 54.4333 108.149 54.76C108.336 55.0867 108.429 55.2967 108.429 55.39ZM116.168 31.8C116.168 31.8933 116.005 32.08 115.678 32.36C115.352 32.64 114.955 32.9433 114.488 33.27C114.068 33.55 113.625 33.8067 113.158 34.04C112.692 34.2733 112.318 34.39 112.038 34.39C111.852 34.39 111.595 34.39 111.268 34.39C110.988 34.3433 110.685 34.25 110.358 34.11C110.078 33.97 109.822 33.7833 109.588 33.55C109.355 33.27 109.238 32.92 109.238 32.5C109.238 31.8467 109.472 31.24 109.938 30.68C110.405 30.0733 111.012 29.77 111.758 29.77C111.898 29.77 112.202 29.84 112.668 29.98C113.182 30.0733 113.695 30.2133 114.208 30.4C114.722 30.5867 115.165 30.7967 115.538 31.03C115.958 31.2633 116.168 31.52 116.168 31.8ZM118.478 57.98C118.478 58.3067 118.222 58.5867 117.708 58.82C117.242 59.0533 116.892 59.17 116.658 59.17C116.192 59.17 115.772 58.8667 115.398 58.26C115.025 57.6533 114.698 56.9533 114.418 56.16C114.138 55.3667 113.905 54.62 113.718 53.92C113.532 53.1733 113.392 52.66 113.298 52.38C113.158 51.9133 112.972 51.3533 112.738 50.7C112.505 50.0467 112.272 49.4167 112.038 48.81C111.852 48.2033 111.688 47.6667 111.548 47.2C111.408 46.7333 111.338 46.4767 111.338 46.43C111.338 45.7767 111.455 45.17 111.688 44.61C111.968 44.05 112.295 43.77 112.668 43.77C113.088 43.77 113.532 44.0967 113.998 44.75C114.465 45.4033 114.908 46.2433 115.328 47.27C115.795 48.25 116.215 49.3467 116.588 50.56C116.962 51.7267 117.288 52.8467 117.568 53.92C117.848 54.9467 118.058 55.8567 118.198 56.65C118.385 57.3967 118.478 57.84 118.478 57.98ZM142.367 56.65C142.414 56.7433 142.437 56.8833 142.437 57.07C142.437 57.35 142.227 57.77 141.807 58.33C141.667 58.5167 141.364 58.82 140.897 59.24C140.431 59.66 139.801 60.08 139.007 60.5C138.214 60.92 137.234 61.2933 136.067 61.62C134.947 61.9467 133.617 62.11 132.077 62.11C131.004 62.11 129.954 61.8767 128.927 61.41C127.901 60.8967 126.991 60.1733 126.197 59.24C125.404 58.26 124.751 57.07 124.237 55.67C123.724 54.2233 123.467 52.5433 123.467 50.63C123.467 48.81 123.701 47.1067 124.167 45.52C124.634 43.9333 125.217 42.5333 125.917 41.32C126.664 40.1067 127.481 39.15 128.367 38.45C129.254 37.75 130.117 37.4 130.957 37.4C131.704 37.4 132.451 37.5633 133.197 37.89C133.991 38.17 134.691 38.5433 135.297 39.01C135.951 39.4767 136.464 40.0133 136.837 40.62C137.211 41.18 137.397 41.7633 137.397 42.37C137.397 43.07 137.071 43.7933 136.417 44.54C135.811 45.2867 135.064 45.9867 134.177 46.64C133.291 47.2467 132.404 47.76 131.517 48.18C130.631 48.5533 129.931 48.74 129.417 48.74C129.137 48.74 128.881 48.6233 128.647 48.39C128.461 48.11 128.367 47.7833 128.367 47.41C128.367 46.7567 128.647 46.2433 129.207 45.87C129.814 45.4967 130.467 45.17 131.167 44.89C131.867 44.5633 132.497 44.19 133.057 43.77C133.664 43.35 133.967 42.7667 133.967 42.02C133.967 41.9267 133.851 41.6933 133.617 41.32C133.384 40.9467 132.754 40.76 131.727 40.76C131.261 40.76 130.724 41.04 130.117 41.6C129.511 42.1133 128.927 42.8367 128.367 43.77C127.807 44.6567 127.341 45.73 126.967 46.99C126.594 48.2033 126.407 49.5333 126.407 50.98C126.407 52.1933 126.617 53.29 127.037 54.27C127.504 55.25 128.087 56.09 128.787 56.79C129.487 57.4433 130.304 57.9567 131.237 58.33C132.171 58.7033 133.127 58.89 134.107 58.89C134.807 58.89 135.554 58.75 136.347 58.47C137.187 58.1433 137.957 57.8167 138.657 57.49C139.404 57.1167 140.034 56.79 140.547 56.51C141.107 56.1833 141.457 56.02 141.597 56.02C141.737 56.02 141.877 56.09 142.017 56.23C142.204 56.37 142.321 56.51 142.367 56.65ZM209.616 42.93C209.616 44.1433 209.336 45.3333 208.776 46.5C208.216 47.6667 207.516 48.7633 206.676 49.79C205.836 50.8167 204.926 51.7733 203.946 52.66C202.966 53.5 202.079 54.2233 201.286 54.83C200.446 55.4833 199.466 56.1833 198.346 56.93C197.226 57.6767 196.129 58.3767 195.056 59.03C194.029 59.6833 193.119 60.29 192.326 60.85C191.533 61.3633 191.043 61.7133 190.856 61.9L188.826 63.51C188.593 63.6967 188.313 63.8133 187.986 63.86C187.706 63.9067 187.473 63.93 187.286 63.93C186.959 63.93 186.703 63.7667 186.516 63.44C186.329 63.0667 186.236 62.6933 186.236 62.32C186.236 62.04 186.493 61.55 187.006 60.85C187.566 60.1033 188.196 59.4733 188.896 58.96C189.596 58.4467 190.459 57.9333 191.486 57.42C192.513 56.9067 193.913 56.09 195.686 54.97C196.573 54.41 197.646 53.6867 198.906 52.8C200.166 51.8667 201.356 50.8867 202.476 49.86C203.596 48.7867 204.553 47.69 205.346 46.57C206.139 45.4033 206.536 44.2833 206.536 43.21C206.536 42.79 206.023 42.37 204.996 41.95C204.016 41.4833 202.616 41.25 200.796 41.25C198.929 41.25 196.969 41.53 194.916 42.09C192.863 42.65 190.949 43.2567 189.176 43.91C187.449 44.5633 185.956 45.17 184.696 45.73C183.436 46.29 182.666 46.57 182.386 46.57C182.526 47.6433 182.689 48.9733 182.876 50.56C183.109 52.1 183.343 53.5933 183.576 55.04C183.809 56.72 184.066 58.47 184.346 60.29H184.626C184.719 60.7567 184.906 61.4333 185.186 62.32C185.466 63.2067 185.606 63.9067 185.606 64.42C185.606 65.1667 185.326 65.54 184.766 65.54C184.486 65.54 184.159 65.2833 183.786 64.77C183.459 64.2567 183.109 63.65 182.736 62.95C182.409 62.25 182.106 61.5733 181.826 60.92C181.593 60.22 181.429 59.73 181.336 59.45C180.916 57.91 180.496 56.1367 180.076 54.13C179.703 52.1233 179.353 50.1167 179.026 48.11C178.746 46.0567 178.513 44.1433 178.326 42.37C178.186 40.55 178.116 39.0567 178.116 37.89C178.116 37.5633 178.186 37.2833 178.326 37.05C178.513 36.8167 178.606 36.5833 178.606 36.35C178.606 36.1167 178.536 35.9533 178.396 35.86C178.303 35.72 178.256 35.51 178.256 35.23C178.256 35.09 178.279 34.95 178.326 34.81C178.419 34.6233 178.629 34.53 178.956 34.53C179.283 34.6233 179.586 34.67 179.866 34.67C180.193 34.67 180.473 34.74 180.706 34.88C180.939 34.9733 181.126 35.16 181.266 35.44C181.406 35.72 181.476 36.1633 181.476 36.77V37.19C181.476 37.2833 181.453 37.4 181.406 37.54C181.406 37.6333 181.406 37.7267 181.406 37.82C181.406 38.6133 181.429 39.2433 181.476 39.71C181.523 40.1767 181.593 40.41 181.686 40.41C181.826 40.41 182.316 40.0833 183.156 39.43C184.043 38.73 185.093 37.8667 186.306 36.84C187.519 35.8133 188.826 34.67 190.226 33.41C191.673 32.15 193.049 30.9367 194.356 29.77C194.869 29.3033 195.569 28.65 196.456 27.81C197.343 26.9233 198.206 25.99 199.046 25.01C199.933 24.03 200.679 23.12 201.286 22.28C201.939 21.3933 202.266 20.7167 202.266 20.25C202.266 19.7833 202.126 19.55 201.846 19.55C201.473 19.55 200.679 19.7133 199.466 20.04C198.253 20.3667 196.876 20.81 195.336 21.37C193.796 21.8833 192.209 22.49 190.576 23.19C188.943 23.89 187.496 24.6133 186.236 25.36C184.929 26.2467 183.623 27.2267 182.316 28.3C181.009 29.3733 179.819 30.4 178.746 31.38C177.719 32.3133 176.856 33.13 176.156 33.83C175.503 34.4833 175.153 34.8567 175.106 34.95C175.013 35.0433 174.966 35.1367 174.966 35.23C174.966 35.3233 174.989 35.4633 175.036 35.65C175.129 35.79 175.176 35.9067 175.176 36C175.176 36.14 175.083 36.2567 174.896 36.35C174.709 36.4433 174.499 36.49 174.266 36.49C173.893 36.49 173.426 36.42 172.866 36.28C172.306 36.0933 172.026 35.6267 172.026 34.88C172.026 34.2267 172.399 33.41 173.146 32.43C173.893 31.45 174.849 30.4 176.016 29.28C177.229 28.16 178.559 27.0633 180.006 25.99C181.453 24.87 182.876 23.8433 184.276 22.91C185.676 22.0233 187.193 21.1833 188.826 20.39C190.506 19.55 192.139 18.8267 193.726 18.22C195.359 17.6133 196.899 17.1467 198.346 16.82C199.793 16.4467 200.983 16.26 201.916 16.26C202.289 16.26 202.709 16.3067 203.176 16.4C203.643 16.4933 204.086 16.6333 204.506 16.82C204.926 17.0067 205.276 17.2633 205.556 17.59C205.836 17.87 205.976 18.22 205.976 18.64C205.976 19.9 205.603 21.2067 204.856 22.56C204.109 23.8667 203.129 25.1967 201.916 26.55C200.703 27.9033 199.326 29.28 197.786 30.68C196.293 32.0333 194.776 33.3633 193.236 34.67C191.743 35.93 190.296 37.1667 188.896 38.38C187.496 39.5467 186.329 40.62 185.396 41.6C185.909 41.4133 186.749 41.11 187.916 40.69C189.083 40.2233 190.343 39.78 191.696 39.36C193.096 38.8933 194.496 38.4967 195.896 38.17C197.296 37.8433 198.533 37.68 199.606 37.68C199.933 37.68 200.633 37.7033 201.706 37.75C202.779 37.7967 203.899 37.9833 205.066 38.31C206.233 38.6367 207.283 39.1733 208.216 39.92C209.149 40.62 209.616 41.6233 209.616 42.93ZM235.336 56.65C235.383 56.7433 235.406 56.8833 235.406 57.07C235.406 57.35 235.196 57.77 234.776 58.33C234.636 58.5167 234.333 58.82 233.866 59.24C233.4 59.66 232.77 60.08 231.976 60.5C231.183 60.92 230.203 61.2933 229.036 61.62C227.916 61.9467 226.586 62.11 225.046 62.11C223.973 62.11 222.923 61.8767 221.896 61.41C220.87 60.8967 219.96 60.1733 219.166 59.24C218.373 58.26 217.72 57.07 217.206 55.67C216.693 54.2233 216.436 52.5433 216.436 50.63C216.436 48.81 216.67 47.1067 217.136 45.52C217.603 43.9333 218.186 42.5333 218.886 41.32C219.633 40.1067 220.45 39.15 221.336 38.45C222.223 37.75 223.086 37.4 223.926 37.4C224.673 37.4 225.42 37.5633 226.166 37.89C226.96 38.17 227.66 38.5433 228.266 39.01C228.92 39.4767 229.433 40.0133 229.806 40.62C230.18 41.18 230.366 41.7633 230.366 42.37C230.366 43.07 230.04 43.7933 229.386 44.54C228.78 45.2867 228.033 45.9867 227.146 46.64C226.26 47.2467 225.373 47.76 224.486 48.18C223.6 48.5533 222.9 48.74 222.386 48.74C222.106 48.74 221.85 48.6233 221.616 48.39C221.43 48.11 221.336 47.7833 221.336 47.41C221.336 46.7567 221.616 46.2433 222.176 45.87C222.783 45.4967 223.436 45.17 224.136 44.89C224.836 44.5633 225.466 44.19 226.026 43.77C226.633 43.35 226.936 42.7667 226.936 42.02C226.936 41.9267 226.82 41.6933 226.586 41.32C226.353 40.9467 225.723 40.76 224.696 40.76C224.23 40.76 223.693 41.04 223.086 41.6C222.48 42.1133 221.896 42.8367 221.336 43.77C220.776 44.6567 220.31 45.73 219.936 46.99C219.563 48.2033 219.376 49.5333 219.376 50.98C219.376 52.1933 219.586 53.29 220.006 54.27C220.473 55.25 221.056 56.09 221.756 56.79C222.456 57.4433 223.273 57.9567 224.206 58.33C225.14 58.7033 226.096 58.89 227.076 58.89C227.776 58.89 228.523 58.75 229.316 58.47C230.156 58.1433 230.926 57.8167 231.626 57.49C232.373 57.1167 233.003 56.79 233.516 56.51C234.076 56.1833 234.426 56.02 234.566 56.02C234.706 56.02 234.846 56.09 234.986 56.23C235.173 56.37 235.29 56.51 235.336 56.65ZM273.53 49.44C273.53 50.28 273.134 51.33 272.34 52.59C271.594 53.8033 270.567 54.9933 269.26 56.16C267.954 57.3267 266.437 58.33 264.71 59.17C262.984 59.9633 261.187 60.36 259.32 60.36C258.48 60.36 257.594 60.22 256.66 59.94C255.727 59.66 254.817 59.2633 253.93 58.75C253.044 58.19 252.25 57.5367 251.55 56.79C250.85 55.9967 250.337 55.11 250.01 54.13C249.73 54.41 249.38 54.8767 248.96 55.53C248.587 56.1833 248.167 56.86 247.7 57.56C247.234 58.2133 246.72 58.7967 246.16 59.31C245.6 59.7767 245.017 60.01 244.41 60.01C243.804 60.01 243.29 59.7067 242.87 59.1C242.497 58.4467 242.194 57.7467 241.96 57C241.727 56.2067 241.564 55.46 241.47 54.76C241.377 54.06 241.33 53.6633 241.33 53.57C241.33 53.01 241.494 51.96 241.82 50.42C242.147 48.8333 242.637 47.2 243.29 45.52C243.944 43.84 244.76 42.3467 245.74 41.04C246.767 39.7333 247.957 39.08 249.31 39.08C249.824 39.08 250.15 39.3133 250.29 39.78C250.477 40.2 250.57 40.62 250.57 41.04V43.14C250.804 43.3267 251.037 43.4667 251.27 43.56C251.55 43.6067 251.784 43.7 251.97 43.84C252.204 43.9333 252.367 44.0967 252.46 44.33C252.6 44.5633 252.67 44.9367 252.67 45.45C252.67 45.7767 252.647 46.08 252.6 46.36C252.554 46.5933 252.53 46.8267 252.53 47.06C252.53 48.2733 252.624 49.4633 252.81 50.63C252.997 51.7967 253.37 52.8467 253.93 53.78C254.49 54.6667 255.26 55.4133 256.24 56.02C257.22 56.58 258.527 56.86 260.16 56.86C262.214 56.86 263.94 56.44 265.34 55.6C266.787 54.7133 267.977 53.7567 268.91 52.73C269.89 51.6567 270.66 50.7 271.22 49.86C271.78 48.9733 272.247 48.53 272.62 48.53C273.227 48.53 273.53 48.8333 273.53 49.44ZM248.96 46.36C248.96 46.1733 248.914 46.01 248.82 45.87C248.727 45.6833 248.68 45.52 248.68 45.38C248.68 45.1933 248.727 45.03 248.82 44.89C248.914 44.75 248.96 44.5633 248.96 44.33C248.96 44.19 248.914 44.0967 248.82 44.05C248.727 43.9567 248.68 43.8633 248.68 43.77C248.26 43.8633 247.817 44.26 247.35 44.96C246.93 45.66 246.51 46.4767 246.09 47.41C245.717 48.3433 245.414 49.3 245.18 50.28C244.947 51.2133 244.83 51.9833 244.83 52.59C244.83 52.9167 244.924 53.4533 245.11 54.2C245.297 54.9467 245.507 55.4367 245.74 55.67C246.534 54.0367 247.257 52.45 247.91 50.91C248.61 49.37 248.96 47.8533 248.96 46.36ZM295.392 55.39C295.392 55.67 295.298 55.95 295.112 56.23C294.925 56.51 294.692 56.7667 294.412 57C294.178 57.2333 293.898 57.4433 293.572 57.63C293.292 57.77 293.035 57.84 292.802 57.84C292.008 57.84 290.982 57.6767 289.722 57.35C288.508 56.9767 287.528 56.4167 286.782 55.67C285.988 54.8767 285.288 53.9433 284.682 52.87C284.075 51.75 283.398 50.1167 282.652 47.97C282.138 50.0233 281.532 52.0533 280.832 54.06C280.178 56.0667 279.105 57.91 277.612 59.59C277.518 59.6833 277.378 59.73 277.192 59.73C276.865 59.73 276.515 59.5667 276.142 59.24C275.768 58.9133 275.582 58.5867 275.582 58.26C275.582 57.9333 275.535 57.1867 275.442 56.02C275.395 54.8067 275.325 53.4767 275.232 52.03C275.138 50.5367 275.045 49.0433 274.952 47.55C274.905 46.01 274.882 44.75 274.882 43.77C274.882 43.3033 274.905 42.6967 274.952 41.95C274.998 41.1567 275.138 40.48 275.372 39.92C275.418 39.8267 275.582 39.64 275.862 39.36C276.188 39.08 276.538 38.94 276.912 38.94C277.238 38.94 277.425 39.15 277.472 39.57C277.518 39.99 277.542 40.4567 277.542 40.97V52.03C277.542 52.2633 277.565 52.59 277.612 53.01C277.705 53.43 277.822 53.7333 277.962 53.92C278.475 52.8 278.942 51.4933 279.362 50C279.828 48.46 280.272 47.0133 280.692 45.66C281.112 44.26 281.532 43.0933 281.952 42.16C282.372 41.18 282.792 40.69 283.212 40.69C283.678 40.69 284.052 40.7833 284.332 40.97C284.612 41.1567 284.845 41.53 285.032 42.09C285.265 43.4433 285.452 44.6567 285.592 45.73C285.732 46.7567 285.895 47.69 286.082 48.53C286.315 49.37 286.618 50.1633 286.992 50.91C287.412 51.61 287.972 52.2633 288.672 52.87C289.325 53.4767 290.048 53.92 290.842 54.2C291.682 54.48 292.405 54.62 293.012 54.62C293.292 54.62 293.595 54.5733 293.922 54.48C294.248 54.34 294.482 54.27 294.622 54.27C294.808 54.27 294.972 54.4333 295.112 54.76C295.298 55.0867 295.392 55.2967 295.392 55.39ZM303.131 31.8C303.131 31.8933 302.968 32.08 302.641 32.36C302.315 32.64 301.918 32.9433 301.451 33.27C301.031 33.55 300.588 33.8067 300.121 34.04C299.655 34.2733 299.281 34.39 299.001 34.39C298.815 34.39 298.558 34.39 298.231 34.39C297.951 34.3433 297.648 34.25 297.321 34.11C297.041 33.97 296.785 33.7833 296.551 33.55C296.318 33.27 296.201 32.92 296.201 32.5C296.201 31.8467 296.435 31.24 296.901 30.68C297.368 30.0733 297.975 29.77 298.721 29.77C298.861 29.77 299.165 29.84 299.631 29.98C300.145 30.0733 300.658 30.2133 301.171 30.4C301.685 30.5867 302.128 30.7967 302.501 31.03C302.921 31.2633 303.131 31.52 303.131 31.8ZM305.441 57.98C305.441 58.3067 305.185 58.5867 304.671 58.82C304.205 59.0533 303.855 59.17 303.621 59.17C303.155 59.17 302.735 58.8667 302.361 58.26C301.988 57.6533 301.661 56.9533 301.381 56.16C301.101 55.3667 300.868 54.62 300.681 53.92C300.495 53.1733 300.355 52.66 300.261 52.38C300.121 51.9133 299.935 51.3533 299.701 50.7C299.468 50.0467 299.235 49.4167 299.001 48.81C298.815 48.2033 298.651 47.6667 298.511 47.2C298.371 46.7333 298.301 46.4767 298.301 46.43C298.301 45.7767 298.418 45.17 298.651 44.61C298.931 44.05 299.258 43.77 299.631 43.77C300.051 43.77 300.495 44.0967 300.961 44.75C301.428 45.4033 301.871 46.2433 302.291 47.27C302.758 48.25 303.178 49.3467 303.551 50.56C303.925 51.7267 304.251 52.8467 304.531 53.92C304.811 54.9467 305.021 55.8567 305.161 56.65C305.348 57.3967 305.441 57.84 305.441 57.98ZM329.33 56.65C329.377 56.7433 329.4 56.8833 329.4 57.07C329.4 57.35 329.19 57.77 328.77 58.33C328.63 58.5167 328.327 58.82 327.86 59.24C327.394 59.66 326.764 60.08 325.97 60.5C325.177 60.92 324.197 61.2933 323.03 61.62C321.91 61.9467 320.58 62.11 319.04 62.11C317.967 62.11 316.917 61.8767 315.89 61.41C314.864 60.8967 313.954 60.1733 313.16 59.24C312.367 58.26 311.714 57.07 311.2 55.67C310.687 54.2233 310.43 52.5433 310.43 50.63C310.43 48.81 310.664 47.1067 311.13 45.52C311.597 43.9333 312.18 42.5333 312.88 41.32C313.627 40.1067 314.444 39.15 315.33 38.45C316.217 37.75 317.08 37.4 317.92 37.4C318.667 37.4 319.414 37.5633 320.16 37.89C320.954 38.17 321.654 38.5433 322.26 39.01C322.914 39.4767 323.427 40.0133 323.8 40.62C324.174 41.18 324.36 41.7633 324.36 42.37C324.36 43.07 324.034 43.7933 323.38 44.54C322.774 45.2867 322.027 45.9867 321.14 46.64C320.254 47.2467 319.367 47.76 318.48 48.18C317.594 48.5533 316.894 48.74 316.38 48.74C316.1 48.74 315.844 48.6233 315.61 48.39C315.424 48.11 315.33 47.7833 315.33 47.41C315.33 46.7567 315.61 46.2433 316.17 45.87C316.777 45.4967 317.43 45.17 318.13 44.89C318.83 44.5633 319.46 44.19 320.02 43.77C320.627 43.35 320.93 42.7667 320.93 42.02C320.93 41.9267 320.814 41.6933 320.58 41.32C320.347 40.9467 319.717 40.76 318.69 40.76C318.224 40.76 317.687 41.04 317.08 41.6C316.474 42.1133 315.89 42.8367 315.33 43.77C314.77 44.6567 314.304 45.73 313.93 46.99C313.557 48.2033 313.37 49.5333 313.37 50.98C313.37 52.1933 313.58 53.29 314 54.27C314.467 55.25 315.05 56.09 315.75 56.79C316.45 57.4433 317.267 57.9567 318.2 58.33C319.134 58.7033 320.09 58.89 321.07 58.89C321.77 58.89 322.517 58.75 323.31 58.47C324.15 58.1433 324.92 57.8167 325.62 57.49C326.367 57.1167 326.997 56.79 327.51 56.51C328.07 56.1833 328.42 56.02 328.56 56.02C328.7 56.02 328.84 56.09 328.98 56.23C329.167 56.37 329.284 56.51 329.33 56.65Z" fill="#F5F6F4"/>
<path d="M443.34 22.3C443.34 22.62 443.34 23.1 443.34 23.74C443.34 24.34 443.24 24.98 443.04 25.66C441.8 25.86 440.86 26.22 440.22 26.74C439.58 27.22 439.26 28.06 439.26 29.26V56.5C439.26 61.06 437.9 64.78 435.18 67.66C432.46 70.54 428.88 72.62 424.44 73.9C423.4 73.14 422.5 72.22 421.74 71.14C424.86 69.38 426.96 67.46 428.04 65.38C429.12 63.3 429.66 60.34 429.66 56.5V26.32C428.66 25.88 427.24 25.66 425.4 25.66C425.4 25.42 425.4 25.02 425.4 24.46C425.4 23.86 425.5 23.14 425.7 22.3H443.34ZM467.219 48.88C467.219 40.96 465.399 37 461.759 37C458.519 37 456.899 40.04 456.899 46.12C456.899 46.56 456.899 47 456.899 47.44C457.179 54.36 459.039 57.82 462.479 57.82C464.239 57.82 465.459 57.06 466.139 55.54C466.859 53.98 467.219 51.76 467.219 48.88ZM462.119 32.86C466.599 32.86 470.219 34.1 472.979 36.58C475.779 39.02 477.179 42.64 477.179 47.44C477.179 52.2 475.779 55.82 472.979 58.3C470.179 60.74 466.539 61.96 462.059 61.96C457.579 61.96 453.939 60.74 451.139 58.3C448.379 55.82 446.999 52.2 446.999 47.44C446.999 42.64 448.399 39.02 451.199 36.58C453.999 34.1 457.639 32.86 462.119 32.86ZM530.685 42.34V57.22C532.285 57.66 533.605 57.88 534.645 57.88C534.645 58.12 534.645 58.54 534.645 59.14C534.645 59.7 534.545 60.42 534.345 61.3H518.085C518.045 60.98 518.025 60.54 518.025 59.98C518.025 59.42 518.125 58.72 518.325 57.88C519.365 57.68 520.125 57.34 520.605 56.86C521.085 56.38 521.325 55.54 521.325 54.34V43.54C521.325 40.42 520.045 38.86 517.485 38.86C515.205 38.86 513.385 40.66 512.025 44.26V57.28C512.985 57.68 514.125 57.88 515.445 57.88C515.445 58.12 515.445 58.54 515.445 59.14C515.445 59.7 515.345 60.42 515.145 61.3H499.485C499.445 60.98 499.425 60.54 499.425 59.98C499.425 59.42 499.525 58.72 499.725 57.88C500.765 57.68 501.525 57.34 502.005 56.86C502.485 56.38 502.725 55.54 502.725 54.34V43.54C502.725 41.98 502.365 40.82 501.645 40.06C500.925 39.26 499.985 38.86 498.825 38.86C496.505 38.86 494.705 40.66 493.425 44.26V57.28C494.385 57.68 495.505 57.88 496.785 57.88C496.785 58.12 496.785 58.52 496.785 59.08C496.785 59.64 496.705 60.38 496.545 61.3H480.045C480.045 60.98 480.045 60.52 480.045 59.92C480.045 59.28 480.145 58.6 480.345 57.88C481.585 57.68 482.525 57.34 483.165 56.86C483.805 56.34 484.125 55.5 484.125 54.34V38.86C483.525 38.78 482.865 38.74 482.145 38.74C481.465 38.74 480.785 38.76 480.105 38.8C480.185 37.4 480.365 36.3 480.645 35.5C484.285 34.18 488.265 33.4 492.585 33.16C492.945 35.12 493.185 36.92 493.305 38.56C495.225 34.76 498.365 32.86 502.725 32.86C504.925 32.86 506.805 33.4 508.365 34.48C509.965 35.56 511.045 37.1 511.605 39.1C513.525 34.94 516.765 32.86 521.325 32.86C524.125 32.86 526.385 33.7 528.105 35.38C529.825 37.06 530.685 39.38 530.685 42.34ZM569.682 42.34V57.22C571.322 57.66 572.662 57.88 573.702 57.88C573.702 58.12 573.702 58.54 573.702 59.14C573.702 59.7 573.602 60.42 573.402 61.3H557.142C557.102 60.98 557.082 60.54 557.082 59.98C557.082 59.42 557.182 58.72 557.382 57.88C558.422 57.68 559.182 57.34 559.662 56.86C560.142 56.38 560.382 55.54 560.382 54.34V43.54C560.382 41.98 560.022 40.82 559.302 40.06C558.582 39.26 557.642 38.86 556.482 38.86C554.162 38.86 552.362 40.66 551.082 44.26V57.28C552.042 57.68 553.162 57.88 554.442 57.88C554.442 58.12 554.442 58.52 554.442 59.08C554.442 59.64 554.362 60.38 554.202 61.3H537.702C537.702 60.98 537.702 60.52 537.702 59.92C537.702 59.28 537.802 58.6 538.002 57.88C539.242 57.68 540.182 57.34 540.822 56.86C541.462 56.34 541.782 55.5 541.782 54.34V23.8C541.342 23.72 540.762 23.68 540.042 23.68C539.322 23.68 538.562 23.7 537.762 23.74C537.842 22.3 538.022 21.18 538.302 20.38C542.142 19.02 546.402 18.26 551.082 18.1V38.26C553.082 34.66 556.182 32.86 560.382 32.86C563.182 32.86 565.422 33.7 567.102 35.38C568.822 37.06 569.682 39.38 569.682 42.34ZM607.205 39.4V55.78C608.405 56.06 609.545 56.2 610.625 56.2C610.705 56.84 610.745 57.44 610.745 58C610.745 58.56 610.745 59 610.745 59.32C607.265 60.76 603.285 61.52 598.805 61.6C598.445 59.68 598.205 57.92 598.085 56.32C596.045 60.08 592.885 61.96 588.605 61.96C585.805 61.96 583.545 61.12 581.825 59.44C580.145 57.76 579.305 55.44 579.305 52.48V38.5C578.705 38.46 578.105 38.44 577.505 38.44C576.905 38.44 576.365 38.44 575.885 38.44C575.965 37.04 576.145 35.94 576.425 35.14C580.385 33.78 584.445 33.02 588.605 32.86V51.28C588.605 52.84 588.965 54 589.685 54.76C590.405 55.52 591.345 55.9 592.505 55.9C594.825 55.9 596.625 54.1 597.905 50.5V41.5C597.905 39.98 597.685 38.84 597.245 38.08C596.805 37.32 596.025 36.76 594.905 36.4C595.065 35.52 595.305 34.8 595.625 34.24C598.265 33.24 601.025 32.74 603.905 32.74C605.065 32.74 606.245 32.82 607.445 32.98C607.285 34.42 607.205 36.56 607.205 39.4ZM638.398 32.86C638.598 33.54 638.698 34.64 638.698 36.16C638.698 37.68 638.478 39.44 638.038 41.44C631.918 41.44 628.538 43.52 627.898 47.68V56.8C629.338 57.36 631.058 57.72 633.058 57.88C633.058 58.12 633.058 58.52 633.058 59.08C633.058 59.64 632.978 60.38 632.818 61.3H614.518C614.518 60.98 614.518 60.52 614.518 59.92C614.518 59.28 614.618 58.6 614.818 57.88C616.058 57.68 616.998 57.34 617.638 56.86C618.278 56.34 618.598 55.5 618.598 54.34V38.86C617.998 38.78 617.338 38.74 616.618 38.74C615.938 38.74 615.258 38.76 614.578 38.8C614.658 37.4 614.838 36.3 615.118 35.5C618.758 34.18 622.738 33.4 627.058 33.16C627.538 35.92 627.818 38.72 627.898 41.56C628.858 39 630.258 36.92 632.098 35.32C633.978 33.68 636.078 32.86 638.398 32.86ZM653.458 25.54C653.458 26.98 652.958 28.22 651.958 29.26C650.958 30.26 649.718 30.76 648.238 30.76C646.798 30.76 645.558 30.26 644.518 29.26C643.478 28.22 642.958 26.98 642.958 25.54C642.958 24.06 643.478 22.82 644.518 21.82C645.558 20.78 646.798 20.26 648.238 20.26C649.718 20.26 650.958 20.78 651.958 21.82C652.958 22.82 653.458 24.06 653.458 25.54ZM656.278 57.88C656.278 58.12 656.278 58.52 656.278 59.08C656.278 59.64 656.198 60.38 656.038 61.3H639.538C639.538 60.98 639.538 60.52 639.538 59.92C639.538 59.28 639.638 58.6 639.838 57.88C641.078 57.68 642.018 57.34 642.658 56.86C643.298 56.34 643.618 55.5 643.618 54.34V38.8C643.018 38.72 642.358 38.68 641.638 38.68C640.958 38.68 640.278 38.7 639.598 38.74C639.678 37.34 639.858 36.22 640.138 35.38C644.018 34.06 648.278 33.3 652.918 33.1V57.28C653.878 57.68 654.998 57.88 656.278 57.88ZM669.828 53.5C669.828 54.38 670.048 55.1 670.488 55.66C670.968 56.18 671.688 56.44 672.648 56.44C673.648 56.44 674.548 55.96 675.348 55V48.4L673.668 48.94C671.108 49.74 669.828 51.26 669.828 53.5ZM689.508 58.24C688.428 59.52 687.368 60.48 686.328 61.12C685.328 61.76 684.068 62.08 682.548 62.08C681.028 62.08 679.608 61.78 678.288 61.18C677.008 60.54 676.128 59.68 675.648 58.6C673.808 60.92 671.488 62.08 668.688 62.08C665.928 62.08 663.768 61.36 662.208 59.92C660.688 58.44 659.928 56.56 659.928 54.28C659.928 50.12 662.728 47.48 668.328 46.36L675.348 44.98V43.18C675.348 40.58 673.828 39.28 670.788 39.28C668.588 39.28 666.288 39.68 663.888 40.48L661.968 37.66C665.528 34.46 669.748 32.86 674.628 32.86C677.948 32.86 680.428 33.74 682.068 35.5C683.748 37.26 684.588 39.76 684.588 43V53.62C684.588 55.58 685.208 56.56 686.448 56.56C686.648 56.56 687.388 56.44 688.668 56.2L689.508 58.24Z" fill="#F5F6F4"/>
<path d="M788.56 66.42C787.8 66.42 787.22 66.22 786.82 65.82C786.42 65.38 786.22 64.76 786.22 63.96V25.8C786.22 25 786.42 24.38 786.82 23.94C787.22 23.5 787.74 23.28 788.38 23.28C789.02 23.28 789.48 23.4 789.76 23.64C790.08 23.84 790.44 24.22 790.84 24.78L817 59.64H815.56V25.68C815.56 24.92 815.76 24.34 816.16 23.94C816.56 23.5 817.14 23.28 817.9 23.28C818.62 23.28 819.16 23.5 819.52 23.94C819.92 24.34 820.12 24.92 820.12 25.68V64.02C820.12 64.78 819.94 65.38 819.58 65.82C819.26 66.22 818.78 66.42 818.14 66.42C817.54 66.42 817.06 66.3 816.7 66.06C816.34 65.82 815.96 65.44 815.56 64.92L789.46 30.06H790.84V63.96C790.84 64.76 790.64 65.38 790.24 65.82C789.84 66.22 789.28 66.42 788.56 66.42ZM840.294 66.54C837.934 66.54 835.974 66.12 834.414 65.28C832.894 64.4 831.734 63.1 830.934 61.38C830.174 59.66 829.794 57.52 829.794 54.96V38.88C829.794 38.04 829.994 37.42 830.394 37.02C830.834 36.62 831.434 36.42 832.194 36.42C832.994 36.42 833.594 36.62 833.994 37.02C834.434 37.42 834.654 38.04 834.654 38.88V54.9C834.654 57.46 835.174 59.38 836.214 60.66C837.294 61.9 838.974 62.52 841.254 62.52C843.734 62.52 845.754 61.68 847.314 60C848.874 58.32 849.654 56.12 849.654 53.4V38.88C849.654 38.04 849.854 37.42 850.254 37.02C850.694 36.62 851.314 36.42 852.114 36.42C852.874 36.42 853.454 36.62 853.854 37.02C854.294 37.42 854.514 38.04 854.514 38.88V63.9C854.514 65.58 853.734 66.42 852.174 66.42C851.414 66.42 850.814 66.2 850.374 65.76C849.974 65.32 849.774 64.7 849.774 63.9V58.44L850.554 59.28C849.754 61.64 848.434 63.44 846.594 64.68C844.794 65.92 842.694 66.54 840.294 66.54ZM866.007 66.42C865.207 66.42 864.607 66.2 864.207 65.76C863.807 65.32 863.607 64.7 863.607 63.9V38.88C863.607 38.08 863.807 37.48 864.207 37.08C864.607 36.64 865.187 36.42 865.947 36.42C866.707 36.42 867.287 36.64 867.687 37.08C868.127 37.48 868.347 38.08 868.347 38.88V44.04L867.687 43.32C868.527 41 869.887 39.26 871.767 38.1C873.687 36.9 875.887 36.3 878.367 36.3C880.687 36.3 882.607 36.72 884.127 37.56C885.687 38.4 886.847 39.68 887.607 41.4C888.367 43.08 888.747 45.22 888.747 47.82V63.9C888.747 64.7 888.527 65.32 888.087 65.76C887.687 66.2 887.107 66.42 886.347 66.42C885.547 66.42 884.927 66.2 884.487 65.76C884.087 65.32 883.887 64.7 883.887 63.9V48.12C883.887 45.4 883.347 43.42 882.267 42.18C881.227 40.9 879.547 40.26 877.227 40.26C874.547 40.26 872.407 41.1 870.807 42.78C869.247 44.42 868.467 46.62 868.467 49.38V63.9C868.467 65.58 867.647 66.42 866.007 66.42ZM900.108 66.3C899.308 66.3 898.708 66.08 898.308 65.64C897.908 65.16 897.708 64.5 897.708 63.66V39.12C897.708 38.28 897.908 37.64 898.308 37.2C898.708 36.76 899.308 36.54 900.108 36.54C900.868 36.54 901.468 36.76 901.908 37.2C902.348 37.64 902.568 38.28 902.568 39.12V63.66C902.568 64.5 902.348 65.16 901.908 65.64C901.508 66.08 900.908 66.3 900.108 66.3ZM900.108 29.82C899.108 29.82 898.328 29.56 897.768 29.04C897.208 28.48 896.928 27.74 896.928 26.82C896.928 25.86 897.208 25.14 897.768 24.66C898.328 24.14 899.108 23.88 900.108 23.88C901.148 23.88 901.928 24.14 902.448 24.66C903.008 25.14 903.288 25.86 903.288 26.82C903.288 27.74 903.008 28.48 902.448 29.04C901.928 29.56 901.148 29.82 900.108 29.82ZM923.354 66.54C921.074 66.54 919.154 66.14 917.594 65.34C916.074 64.5 914.934 63.3 914.174 61.74C913.414 60.14 913.034 58.2 913.034 55.92V40.62H909.014C908.334 40.62 907.814 40.46 907.454 40.14C907.094 39.78 906.914 39.3 906.914 38.7C906.914 38.1 907.094 37.64 907.454 37.32C907.814 37 908.334 36.84 909.014 36.84H913.034V29.94C913.034 29.14 913.254 28.54 913.694 28.14C914.134 27.7 914.734 27.48 915.494 27.48C916.254 27.48 916.834 27.7 917.234 28.14C917.674 28.54 917.894 29.14 917.894 29.94V36.84H925.454C926.134 36.84 926.654 37 927.014 37.32C927.374 37.64 927.554 38.1 927.554 38.7C927.554 39.3 927.374 39.78 927.014 40.14C926.654 40.46 926.134 40.62 925.454 40.62H917.894V55.44C917.894 57.72 918.374 59.46 919.334 60.66C920.294 61.82 921.854 62.4 924.014 62.4C924.774 62.4 925.414 62.32 925.934 62.16C926.494 62 926.954 61.92 927.314 61.92C927.674 61.88 927.974 62 928.214 62.28C928.454 62.56 928.574 63.04 928.574 63.72C928.574 64.2 928.474 64.64 928.274 65.04C928.114 65.44 927.814 65.72 927.374 65.88C926.894 66.04 926.254 66.18 925.454 66.3C924.694 66.46 923.994 66.54 923.354 66.54ZM944.457 66.54C941.617 66.54 939.157 65.92 937.077 64.68C934.997 63.44 933.377 61.7 932.217 59.46C931.097 57.18 930.537 54.5 930.537 51.42C930.537 49.1 930.857 47.02 931.497 45.18C932.137 43.3 933.077 41.7 934.317 40.38C935.557 39.06 937.017 38.06 938.697 37.38C940.417 36.66 942.337 36.3 944.457 36.3C947.297 36.3 949.757 36.92 951.837 38.16C953.917 39.4 955.517 41.16 956.637 43.44C957.797 45.68 958.377 48.34 958.377 51.42C958.377 53.74 958.057 55.82 957.417 57.66C956.777 59.5 955.837 61.1 954.597 62.46C953.357 63.78 951.877 64.8 950.157 65.52C948.477 66.2 946.577 66.54 944.457 66.54ZM944.457 62.64C946.257 62.64 947.837 62.2 949.197 61.32C950.557 60.44 951.597 59.16 952.317 57.48C953.077 55.8 953.457 53.78 953.457 51.42C953.457 47.78 952.637 45 950.997 43.08C949.397 41.16 947.217 40.2 944.457 40.2C942.617 40.2 941.017 40.64 939.657 41.52C938.337 42.36 937.297 43.62 936.537 45.3C935.817 46.94 935.457 48.98 935.457 51.42C935.457 55.02 936.277 57.8 937.917 59.76C939.557 61.68 941.737 62.64 944.457 62.64Z" fill="#F5F6F4"/>
</svg>
